<svg width="245" height="288" viewBox="0 0 245 288" fill="none" xmlns="http://www.w3.org/2000/svg">
<g id="social">
<g id="twitter">
<path id="twitter_icon" d="M231.364 38.9262L234.26 38.3661C234.26 38.3661 231.827 40.9986 231.364 41.1666C231.32 41.7259 231.32 42.2876 231.364 42.8469C225.803 65.9234 205.298 55.7294 205.298 55.7294C212.77 55.8974 213.407 52.9289 213.407 52.9289C209.063 52.3128 208.194 49.5682 208.194 49.5682C208.584 49.7671 209.036 49.8198 209.463 49.7165C209.891 49.6131 210.264 49.3609 210.511 49.0081C205.819 47.8319 206.456 43.4071 206.456 43.4071C207.293 43.9909 208.27 44.3573 209.295 44.4713C208.773 43.8551 204.371 38.7582 207.036 36.1257C207.036 36.1257 210.279 41.7267 218.794 42.2308L219.373 42.1188C219.275 41.7154 219.236 41.3005 219.258 40.8866C219.258 39.3268 219.898 37.8309 221.039 36.728C222.18 35.6251 223.727 35.0054 225.34 35.0054C229.394 35.0054 230.263 37.2459 230.263 37.2459L233.159 35.5656C233.101 35.5656 232.812 38.3661 231.364 38.9262Z" fill="#3F3D56"/>
<path id="circle" d="M217.462 68.8932C212.65 68.8932 207.947 67.5135 203.946 64.9286C199.945 62.3437 196.827 58.6697 194.986 54.3711C193.145 50.0726 192.663 45.3426 193.601 40.7793C194.54 36.216 196.857 32.0243 200.259 28.7344C203.662 25.4444 207.997 23.2039 212.716 22.2962C217.435 21.3885 222.326 21.8544 226.772 23.6349C231.217 25.4154 235.017 28.4306 237.69 32.2992C240.363 36.1678 241.79 40.716 241.79 45.3687C241.783 51.6056 239.217 57.5851 234.656 61.9952C230.096 66.4054 223.912 68.8862 217.462 68.8932ZM217.462 22.9644C212.879 22.9644 208.4 24.2784 204.59 26.7402C200.779 29.202 197.81 32.7011 196.056 36.7949C194.303 40.8888 193.844 45.3935 194.738 49.7396C195.632 54.0856 197.838 58.0776 201.079 61.2109C204.319 64.3442 208.447 66.478 212.942 67.3425C217.436 68.207 222.095 67.7633 226.328 66.0676C230.562 64.3718 234.181 61.5002 236.727 57.8159C239.272 54.1315 240.631 49.7999 240.631 45.3687C240.624 39.4288 238.181 33.7341 233.838 29.5339C229.494 25.3337 223.605 22.9711 217.462 22.9644Z" fill="#CCCCCC"/>
<g id="twitter_notification">
<path id="Vector" d="M235.194 76.2734C240.61 76.2734 245 72.0281 245 66.7912C245 61.5543 240.61 57.3089 235.194 57.3089C229.778 57.3089 225.388 61.5543 225.388 66.7912C225.388 72.0281 229.778 76.2734 235.194 76.2734Z" fill="#3F3D56"/>
<path id="Vector_2" d="M234.029 68.3412C233.995 68.8501 234.144 69.3547 234.45 69.7702C234.558 69.9207 234.702 70.0446 234.869 70.1321C235.036 70.2196 235.221 70.2682 235.411 70.274C235.579 70.2755 235.745 70.239 235.896 70.1673C236.046 70.0957 236.178 69.991 236.279 69.8615C236.547 69.4608 236.669 68.9855 236.627 68.5103C236.668 68.0112 236.536 67.5131 236.252 67.0946C236.145 66.9569 236.006 66.8448 235.846 66.7671C235.687 66.6893 235.511 66.6478 235.333 66.6458C235.154 66.6438 234.977 66.6814 234.816 66.7556C234.655 66.8298 234.514 66.9388 234.403 67.074C234.128 67.4407 233.995 67.8894 234.029 68.3412ZM238.283 64.1997L236.466 64.4029C236.451 64.0937 236.329 63.7983 236.118 63.5653C236.022 63.4748 235.908 63.4041 235.783 63.3577C235.658 63.3112 235.525 63.2899 235.391 63.2951C235.19 63.2978 234.993 63.3485 234.818 63.4428C234.642 63.5371 234.494 63.6719 234.386 63.8352C234.023 64.5326 233.845 65.3059 233.868 66.086C234.07 65.8238 234.333 65.6112 234.636 65.4655C234.939 65.3198 235.273 65.245 235.611 65.2471C235.995 65.2458 236.374 65.3263 236.722 65.4829C237.07 65.6395 237.378 65.8684 237.624 66.1533C238.199 66.8016 238.499 67.637 238.462 68.4907C238.507 69.3835 238.191 70.2582 237.581 70.9299C237.27 71.2403 236.895 71.4825 236.479 71.6402C236.064 71.798 235.618 71.8675 235.172 71.844C234.726 71.8206 234.291 71.7048 233.896 71.5044C233.5 71.304 233.154 71.0238 232.88 70.6827C232.244 69.9061 231.925 68.6326 231.925 66.8623C231.925 65.0468 232.257 63.7382 232.92 62.9366C233.222 62.553 233.614 62.244 234.063 62.035C234.512 61.826 235.006 61.7228 235.504 61.734C236.18 61.7106 236.84 61.9363 237.351 62.3655C237.873 62.8531 238.203 63.5019 238.283 64.1997Z" fill="#3F3D56"/>
<path id="Vector_3" d="M235.194 76.2734C240.61 76.2734 245 72.0281 245 66.7912C245 61.5543 240.61 57.3089 235.194 57.3089C229.778 57.3089 225.388 61.5543 225.388 66.7912C225.388 72.0281 229.778 76.2734 235.194 76.2734Z" fill="#2472FF"/>
<path id="Vector_4" d="M234.029 68.3412C233.995 68.8501 234.144 69.3547 234.45 69.7702C234.558 69.9207 234.702 70.0446 234.869 70.1321C235.036 70.2196 235.221 70.2682 235.411 70.274C235.579 70.2755 235.745 70.239 235.896 70.1673C236.046 70.0957 236.178 69.991 236.279 69.8615C236.547 69.4608 236.669 68.9855 236.627 68.5103C236.668 68.0112 236.536 67.5131 236.252 67.0946C236.145 66.9569 236.006 66.8448 235.846 66.7671C235.687 66.6893 235.511 66.6478 235.333 66.6458C235.154 66.6438 234.977 66.6814 234.816 66.7556C234.655 66.8298 234.514 66.9388 234.403 67.074C234.128 67.4407 233.995 67.8894 234.029 68.3412ZM238.283 64.1997L236.466 64.4029C236.451 64.0937 236.329 63.7983 236.118 63.5653C236.022 63.4748 235.908 63.4041 235.783 63.3577C235.658 63.3112 235.525 63.2899 235.391 63.2951C235.19 63.2978 234.993 63.3485 234.818 63.4428C234.642 63.5371 234.494 63.6719 234.386 63.8352C234.023 64.5326 233.845 65.3059 233.868 66.086C234.07 65.8238 234.333 65.6112 234.636 65.4655C234.939 65.3198 235.273 65.245 235.611 65.2471C235.995 65.2458 236.374 65.3263 236.722 65.4829C237.07 65.6395 237.378 65.8684 237.624 66.1533C238.199 66.8016 238.499 67.637 238.462 68.4907C238.507 69.3835 238.191 70.2582 237.581 70.9299C237.27 71.2403 236.895 71.4825 236.479 71.6402C236.064 71.798 235.618 71.8675 235.172 71.844C234.726 71.8206 234.291 71.7048 233.896 71.5044C233.5 71.304 233.154 71.0238 232.88 70.6827C232.244 69.9061 231.925 68.6326 231.925 66.8623C231.925 65.0468 232.257 63.7382 232.92 62.9366C233.222 62.553 233.614 62.244 234.063 62.035C234.512 61.826 235.006 61.7228 235.504 61.734C236.18 61.7106 236.84 61.9363 237.351 62.3655C237.873 62.8531 238.203 63.5019 238.283 64.1997Z" fill="white"/>
</g>
</g>
<g id="linkedin">
<path id="linkedin_icon" d="M184.834 106.98L163.365 106.981C163.089 106.969 162.813 107.008 162.553 107.099C162.293 107.189 162.054 107.329 161.85 107.509C161.646 107.689 161.481 107.906 161.363 108.148C161.246 108.39 161.18 108.652 161.168 108.919L161.169 129.724C161.184 130.284 161.421 130.817 161.829 131.213C162.238 131.61 162.789 131.84 163.368 131.856L184.83 131.854C185.394 131.832 185.928 131.596 186.314 131.197C186.7 130.798 186.908 130.268 186.893 129.722L186.891 108.917C186.896 108.657 186.845 108.398 186.743 108.158C186.64 107.917 186.488 107.7 186.295 107.518C186.102 107.337 185.873 107.196 185.622 107.103C185.371 107.01 185.102 106.968 184.834 106.98ZM169.143 127.715L165.458 127.715L165.457 116.636L169.142 116.635L169.143 127.715ZM167.427 114.951H167.4C166.87 114.947 166.363 114.741 165.99 114.377C165.617 114.012 165.408 113.52 165.41 113.007C165.411 112.494 165.623 112.003 165.999 111.641C166.375 111.279 166.883 111.076 167.414 111.076C167.944 111.076 168.452 111.279 168.828 111.641C169.204 112.003 169.416 112.494 169.417 113.007C169.419 113.52 169.211 114.012 168.837 114.377C168.464 114.741 167.957 114.947 167.427 114.951ZM182.611 127.714L178.926 127.714L178.925 121.656C178.925 120.204 178.389 119.213 177.056 119.213C176.639 119.216 176.233 119.344 175.895 119.58C175.556 119.816 175.302 120.147 175.166 120.528C175.068 120.81 175.025 121.107 175.039 121.404L175.039 127.714L171.354 127.715L171.353 116.635L175.038 116.635L175.038 118.177C175.374 117.615 175.86 117.152 176.444 116.835C177.029 116.518 177.692 116.359 178.362 116.375C180.781 116.375 182.611 117.917 182.611 121.241V127.714Z" fill="#3F3D56"/>
<path id="circle_2" d="M174.019 143.388C169.208 143.388 164.504 142.008 160.503 139.423C156.503 136.838 153.385 133.164 151.543 128.865C149.702 124.567 149.22 119.837 150.159 115.274C151.097 110.71 153.414 106.519 156.817 103.229C160.219 99.9387 164.554 97.6982 169.273 96.7905C173.992 95.8828 178.884 96.3487 183.329 98.1292C187.774 99.9097 191.574 102.925 194.247 106.793C196.92 110.662 198.347 115.21 198.347 119.863C198.34 126.1 195.774 132.079 191.214 136.49C186.653 140.9 180.469 143.38 174.019 143.388ZM174.019 97.4587C169.437 97.4587 164.957 98.7727 161.147 101.235C157.337 103.696 154.367 107.195 152.613 111.289C150.86 115.383 150.401 119.888 151.295 124.234C152.189 128.58 154.396 132.572 157.636 135.705C160.876 138.839 165.005 140.972 169.499 141.837C173.994 142.701 178.652 142.258 182.886 140.562C187.119 138.866 190.738 135.995 193.284 132.31C195.83 128.626 197.189 124.294 197.189 119.863C197.182 113.923 194.738 108.228 190.395 104.028C186.051 99.828 180.162 97.4654 174.019 97.4587Z" fill="#CCCCCC"/>
<g id="linkedin_notification">
<path id="Vector_5" d="M193.927 149.534C199.343 149.534 203.733 145.288 203.733 140.051C203.733 134.815 199.343 130.569 193.927 130.569C188.511 130.569 184.121 134.815 184.121 140.051C184.121 145.288 188.511 149.534 193.927 149.534Z" fill="#3F3D56"/>
<path id="Vector_6" d="M192.713 137.682C192.703 137.842 192.726 138.003 192.782 138.155C192.837 138.307 192.923 138.446 193.035 138.566C193.148 138.673 193.282 138.756 193.43 138.811C193.577 138.866 193.735 138.89 193.893 138.883C194.052 138.89 194.212 138.865 194.361 138.81C194.511 138.755 194.646 138.671 194.76 138.562C194.873 138.443 194.96 138.303 195.016 138.15C195.072 137.998 195.096 137.836 195.086 137.675C195.094 137.519 195.069 137.363 195.014 137.216C194.959 137.069 194.874 136.935 194.764 136.82C194.653 136.713 194.52 136.629 194.374 136.573C194.227 136.518 194.07 136.493 193.913 136.5C193.752 136.492 193.591 136.517 193.441 136.573C193.29 136.629 193.153 136.714 193.039 136.824C192.928 136.939 192.842 137.074 192.786 137.221C192.73 137.368 192.705 137.525 192.713 137.682ZM192.537 141.922C192.509 142.364 192.653 142.799 192.94 143.144C193.064 143.284 193.219 143.396 193.393 143.472C193.567 143.548 193.756 143.586 193.947 143.583C194.132 143.587 194.316 143.551 194.485 143.478C194.653 143.405 194.803 143.296 194.924 143.16C195.203 142.814 195.341 142.38 195.31 141.942C195.331 141.535 195.19 141.136 194.917 140.825C194.793 140.688 194.64 140.579 194.467 140.506C194.295 140.433 194.108 140.398 193.92 140.402C193.719 140.389 193.517 140.427 193.335 140.511C193.152 140.595 192.996 140.723 192.879 140.882C192.656 141.186 192.536 141.549 192.537 141.922ZM192.32 139.592C191.877 139.425 191.5 139.126 191.245 138.738C191.022 138.378 190.906 137.966 190.91 137.547C190.899 137.206 190.963 136.867 191.096 136.552C191.23 136.237 191.431 135.952 191.686 135.717C192.318 135.248 193.093 134.994 193.89 134.994C194.687 134.994 195.461 135.248 196.094 135.717C196.35 135.951 196.553 136.235 196.688 136.551C196.823 136.866 196.887 137.206 196.877 137.547C196.886 137.981 196.761 138.408 196.517 138.773C196.272 139.138 195.921 139.423 195.507 139.592C196.016 139.775 196.453 140.109 196.756 140.545C197.059 140.981 197.213 141.497 197.196 142.023C197.219 142.436 197.152 142.849 196.999 143.235C196.845 143.621 196.609 143.972 196.305 144.263C196.001 144.555 195.637 144.781 195.237 144.927C194.836 145.072 194.408 145.134 193.981 145.109C193.166 145.137 192.366 144.886 191.723 144.4C191.372 144.124 191.094 143.773 190.909 143.374C190.724 142.975 190.638 142.54 190.658 142.103C190.653 141.586 190.791 141.077 191.058 140.629C191.35 140.16 191.794 139.795 192.32 139.592Z" fill="#3F3D56"/>
<path id="Vector_7" d="M193.927 149.534C199.343 149.534 203.733 145.288 203.733 140.051C203.733 134.815 199.343 130.569 193.927 130.569C188.511 130.569 184.121 134.815 184.121 140.051C184.121 145.288 188.511 149.534 193.927 149.534Z" fill="#2472FF"/>
<path id="Vector_8" d="M192.713 137.682C192.703 137.842 192.726 138.003 192.782 138.155C192.837 138.307 192.923 138.446 193.035 138.566C193.148 138.673 193.282 138.756 193.43 138.811C193.577 138.866 193.735 138.89 193.893 138.883C194.052 138.89 194.212 138.865 194.361 138.81C194.511 138.755 194.646 138.671 194.76 138.562C194.873 138.443 194.96 138.303 195.016 138.15C195.072 137.998 195.096 137.836 195.086 137.675C195.094 137.519 195.069 137.363 195.014 137.216C194.959 137.069 194.874 136.935 194.764 136.82C194.653 136.713 194.52 136.629 194.374 136.573C194.227 136.518 194.07 136.493 193.913 136.5C193.752 136.492 193.591 136.517 193.441 136.573C193.29 136.629 193.153 136.714 193.039 136.824C192.928 136.939 192.842 137.074 192.786 137.221C192.73 137.368 192.705 137.525 192.713 137.682ZM192.537 141.922C192.509 142.364 192.653 142.799 192.94 143.144C193.064 143.284 193.219 143.396 193.393 143.472C193.567 143.548 193.756 143.586 193.947 143.583C194.132 143.587 194.316 143.551 194.485 143.478C194.653 143.405 194.803 143.296 194.924 143.16C195.203 142.814 195.341 142.38 195.31 141.942C195.331 141.535 195.19 141.136 194.917 140.825C194.793 140.688 194.64 140.579 194.467 140.506C194.295 140.433 194.108 140.398 193.92 140.402C193.719 140.389 193.517 140.427 193.335 140.511C193.152 140.595 192.996 140.723 192.879 140.882C192.656 141.186 192.536 141.549 192.537 141.922ZM192.32 139.592C191.877 139.425 191.5 139.126 191.245 138.738C191.022 138.378 190.906 137.966 190.91 137.547C190.899 137.206 190.963 136.867 191.096 136.552C191.23 136.237 191.431 135.952 191.686 135.717C192.318 135.248 193.093 134.994 193.89 134.994C194.687 134.994 195.461 135.248 196.094 135.717C196.35 135.951 196.553 136.235 196.688 136.551C196.823 136.866 196.887 137.206 196.877 137.547C196.886 137.981 196.761 138.408 196.517 138.773C196.272 139.138 195.921 139.423 195.507 139.592C196.016 139.775 196.453 140.109 196.756 140.545C197.059 140.981 197.213 141.497 197.196 142.023C197.219 142.436 197.152 142.849 196.999 143.235C196.845 143.621 196.609 143.972 196.305 144.263C196.001 144.555 195.637 144.781 195.237 144.927C194.836 145.072 194.408 145.134 193.981 145.109C193.166 145.137 192.366 144.886 191.723 144.4C191.372 144.124 191.094 143.773 190.909 143.374C190.724 142.975 190.638 142.54 190.658 142.103C190.653 141.586 190.791 141.077 191.058 140.629C191.35 140.16 191.794 139.795 192.32 139.592Z" fill="white"/>
</g>
</g>
<g id="fb">
<path id="fb_icon" fill-rule="evenodd" clip-rule="evenodd" d="M139.529 23.6169C139.529 20.6781 138.657 17.801 137.018 15.3262C135.379 12.8514 133.041 10.8825 130.281 9.65268C127.521 8.42282 124.454 7.98348 121.444 8.38667C118.433 8.78985 115.606 10.0187 113.295 11.9277C110.984 13.8367 109.288 16.3459 108.406 19.1583C107.524 21.9707 107.495 24.9685 108.32 27.7968C109.145 30.625 110.792 33.1654 113.064 35.1171C115.336 37.0688 118.139 38.35 121.141 38.8092V28.0636H117.102V23.6169H121.141V20.2281C121.141 16.3746 123.516 14.2443 127.148 14.2443C128.341 14.2603 129.531 14.3608 130.708 14.545V18.3298H128.702C126.728 18.3298 126.11 19.5148 126.11 20.7327V23.6175H130.52L129.816 28.0642H126.11V38.8106C129.851 38.2376 133.258 36.3926 135.718 33.6074C138.178 30.8222 139.529 27.2796 139.529 23.6168V23.6169Z" fill="#3F3D56"/>
<path id="circle_3" d="M123.626 47.049C118.814 47.049 114.111 45.6693 110.11 43.0844C106.109 40.4995 102.991 36.8255 101.15 32.527C99.3083 28.2284 98.8266 23.4984 99.7653 18.9351C100.704 14.3718 103.021 10.1801 106.423 6.89016C109.826 3.6002 114.16 1.35971 118.88 0.452012C123.599 -0.455687 128.49 0.0101791 132.936 1.79069C137.381 3.57121 141.18 6.5864 143.854 10.455C146.527 14.3236 147.954 18.8718 147.954 23.5245C147.946 29.7614 145.381 35.7409 140.82 40.1511C136.259 44.5612 130.076 47.042 123.626 47.049ZM123.626 1.12021C119.043 1.12021 114.564 2.43419 110.753 4.89601C106.943 7.35783 103.974 10.8569 102.22 14.9508C100.466 19.0446 100.007 23.5494 100.901 27.8954C101.795 32.2414 104.002 36.2335 107.242 39.3668C110.483 42.5 114.611 44.6338 119.106 45.4983C123.6 46.3628 128.259 45.9191 132.492 44.2234C136.726 42.5277 140.344 39.656 142.89 35.9717C145.436 32.2873 146.795 27.9557 146.795 23.5245C146.788 17.5846 144.345 11.8899 140.001 7.68969C135.658 3.48953 129.768 1.12692 123.626 1.12021Z" fill="#CCCCCC"/>
<g id="fb_notification">
<path id="Vector_9" d="M141.801 52.5555C147.158 52.5555 151.501 48.3102 151.501 43.0733C151.501 37.8364 147.158 33.591 141.801 33.591C136.444 33.591 132.102 37.8364 132.102 43.0733C132.102 48.3102 136.444 52.5555 141.801 52.5555Z" fill="#3F3D56"/>
<path id="Vector_10" d="M143.741 48.1305H141.766V40.8541C141.037 41.5176 140.166 42.0172 139.214 42.3172V40.5652C139.825 40.3477 140.394 40.0305 140.894 39.6274C141.46 39.2172 141.892 38.6577 142.138 38.0161H143.741V48.1305Z" fill="#3F3D56"/>
<path id="Vector_11" d="M141.801 52.5555C147.158 52.5555 151.501 48.3102 151.501 43.0733C151.501 37.8364 147.158 33.591 141.801 33.591C136.444 33.591 132.102 37.8364 132.102 43.0733C132.102 48.3102 136.444 52.5555 141.801 52.5555Z" fill="#2472FF"/>
<path id="Vector_12" d="M143.741 48.1305H141.766V40.8541C141.037 41.5176 140.166 42.0172 139.214 42.3172V40.5652C139.825 40.3477 140.394 40.0305 140.894 39.6274C141.46 39.2172 141.892 38.6577 142.138 38.0161H143.741V48.1305Z" fill="white"/>
</g>
</g>
<g id="person">
<g id="head">
<path id="Vector_13" d="M37.3543 106.412C45.2114 106.412 51.5809 100.253 51.5809 92.6551C51.5809 85.0574 45.2114 78.8983 37.3543 78.8983C29.4971 78.8983 23.1277 85.0574 23.1277 92.6551C23.1277 100.253 29.4971 106.412 37.3543 106.412Z" fill="#FFB8B8"/>
<path id="Vector_14" d="M33.8904 106.411C31.7492 106.456 29.6225 106.062 27.65 105.255C25.6775 104.449 23.9039 103.248 22.4456 101.731C20.9874 100.214 19.8776 98.4162 19.1892 96.4552C18.5008 94.4941 18.2493 92.4144 18.4513 90.3527C18.6533 88.291 19.3043 86.294 20.3613 84.4929C21.4183 82.6918 22.8576 81.1273 24.5844 79.9024C26.3113 78.6774 28.2866 77.8197 30.3807 77.3856C32.4748 76.9515 34.6402 76.9508 36.7345 77.3836C39.8631 75.5467 43.5005 74.3107 47.1462 74.6251C50.7918 74.9394 54.3973 77.0323 55.7605 80.3169C57.1238 83.6015 55.6592 87.9311 52.2694 89.2659C50.0962 90.1217 47.6421 89.7067 45.3229 89.3616C43.0037 89.0165 40.4737 88.7913 38.4553 89.9484C36.4369 91.1056 35.5295 94.2083 37.3372 95.655C38.2955 96.4523 38.9797 97.513 39.2989 98.6958C39.618 99.8785 39.5569 101.127 39.1237 102.276C38.2152 104.548 35.7355 106.373 33.8904 106.411Z" fill="#2F2E41"/>
</g>
<g id="arms">
<path id="Vector_15" d="M86 182.372C85.9006 181.61 85.6297 180.879 85.2064 180.229C84.7831 179.58 84.2176 179.028 83.5498 178.612C82.882 178.197 82.1281 177.928 81.3413 177.825C80.5545 177.722 79.7538 177.786 78.9957 178.015L71.045 168.799L64.0746 172.105L75.4916 184.967C75.9727 186.173 76.8947 187.167 78.0828 187.76C79.2709 188.352 80.6426 188.503 81.9379 188.183C83.2332 187.863 84.3621 187.095 85.1108 186.024C85.8595 184.953 86.1758 183.653 86 182.372Z" fill="#FFB8B8"/>
<path id="Vector_16" d="M17.5727 191.693C17.9115 190.999 18.0887 190.241 18.0919 189.473C18.0951 188.705 17.9241 187.946 17.591 187.249C17.258 186.552 16.7709 185.934 16.1642 185.439C15.5574 184.944 14.8457 184.583 14.0793 184.382L12.483 172.48L4.76645 171.654L7.26479 188.432C7.00169 189.699 7.22853 191.016 7.90233 192.132C8.57613 193.249 9.65007 194.088 10.9207 194.49C12.1912 194.892 13.5702 194.829 14.7962 194.314C16.0222 193.798 17.0101 192.866 17.5727 191.693L17.5727 191.693Z" fill="#FFB8B8"/>
<path id="Vector_17" d="M6.77359 184.415C6.14868 184.415 5.54463 184.198 5.07145 183.803C4.59827 183.408 4.28746 182.863 4.19562 182.265L0.39735 157.531C-0.079912 154.418 0.306125 151.238 1.51601 148.316L13.1768 120.176C13.6537 119.025 14.4361 118.016 15.4451 117.251C16.4541 116.486 17.6539 115.992 18.9235 115.819C20.1931 115.645 21.4875 115.799 22.6762 116.264C23.8648 116.729 24.9055 117.489 25.6934 118.467H25.6934C26.5076 119.475 27.0219 120.679 27.1811 121.949C27.3403 123.219 27.1383 124.507 26.597 125.674L21.0997 137.564C14.9347 150.903 12.6085 165.604 14.3669 180.115C14.438 180.701 14.2945 181.292 13.9612 181.786C13.628 182.28 13.1262 182.645 12.5432 182.818L7.5392 184.304C7.29112 184.378 7.03308 184.415 6.77359 184.415Z" fill="#CCCCCC"/>
<path id="Vector_18" d="M28.3457 189.241C23.1396 189.241 18.5932 188.481 16.0827 186.311C14.4694 184.916 13.7716 183.02 14.009 180.674C14.9012 171.856 13.3552 152.53 11.9011 137.869C11.5681 134.431 11.9456 130.963 13.0116 127.667C14.0777 124.371 15.8109 121.313 18.1106 118.671C20.3233 116.112 23.0473 114.01 26.1196 112.492C29.1918 110.974 32.5492 110.071 35.9908 109.838C40.7802 109.508 51.9957 108.739 55.4818 117.373C60.7189 130.343 58.1575 136.291 55.6805 142.043C53.576 146.929 51.3999 151.983 54.0673 161.472C55.5408 166.719 57.3253 171.88 59.4119 176.93C60.8563 180.511 61.5814 182.309 60.912 183.483C60.3839 184.409 59.0667 184.813 56.8208 185.233C56.0872 185.371 55.1179 185.57 53.9635 185.807C48.0945 187.013 37.2546 189.241 28.3457 189.241Z" fill="#CCCCCC"/>
<path id="Vector_19" d="M71.0884 181.113C71.0683 181.113 71.0483 181.113 71.0283 181.112C70.653 181.104 70.284 181.017 69.9465 180.858C69.6091 180.699 69.3111 180.472 69.0731 180.191L54.3261 162.814C51.1773 159.102 49.104 154.648 48.318 149.907L43.7773 122.466C43.6242 121.541 43.6635 120.595 43.8929 119.685C44.1223 118.774 44.5373 117.917 45.1134 117.163C45.6896 116.41 46.4154 115.775 47.2483 115.296C48.0813 114.816 49.0048 114.503 49.9647 114.373C50.9246 114.243 51.9016 114.3 52.8386 114.539C53.7756 114.779 54.6538 115.197 55.4217 115.769C56.1897 116.34 56.8319 117.055 57.311 117.869C57.7901 118.684 58.0963 119.583 58.2118 120.514L60.0169 135.068C61.6861 148.512 67.0782 161.271 75.624 171.998L76.6556 173.292C77.0279 173.759 77.2191 174.338 77.1958 174.927C77.1725 175.516 76.9361 176.079 76.528 176.517L73.025 180.279C72.7808 180.541 72.4821 180.751 72.1484 180.895C71.8148 181.038 71.4536 181.113 71.0884 181.113Z" fill="#CCCCCC"/>
</g>
<g id="phone">
<path id="Vector_20" d="M89.1538 164.367C89.3256 164.439 89.4811 164.542 89.6115 164.672C89.7419 164.801 89.8447 164.955 89.9138 165.123C89.983 165.291 90.0173 165.47 90.0147 165.651C90.0121 165.832 89.9727 166.01 89.8988 166.177L87.9646 170.521L88.1838 170.629L86.865 173.578L86.6539 173.465L79.7247 189.028C79.4876 189.561 79.0581 189.992 78.5164 190.241C77.9748 190.49 77.3579 190.54 76.781 190.381L66.007 187.421C65.7447 187.349 65.5018 187.222 65.2955 187.05C65.0892 186.878 64.9243 186.664 64.8126 186.423C64.7008 186.183 64.6448 185.921 64.6485 185.658C64.6521 185.394 64.7154 185.134 64.8339 184.897L75.6933 163.121C75.9214 162.664 76.3037 162.295 76.7772 162.076C77.2507 161.856 77.7874 161.799 78.299 161.914L88.9004 164.288C88.9872 164.306 89.0721 164.333 89.1538 164.367Z" fill="#3F3D56"/>
<path id="Vector_21" d="M80.1865 163.592L85.7598 164.84C85.8601 164.862 85.9653 164.852 86.059 164.811C86.1528 164.77 86.2299 164.7 86.2784 164.612C86.3334 164.512 86.4207 164.433 86.5269 164.387C86.6331 164.34 86.7522 164.329 86.8658 164.354L88.0398 164.617C88.2 164.653 88.3501 164.722 88.4795 164.82C88.6089 164.918 88.7145 165.043 88.7887 165.185C88.863 165.326 88.9042 165.482 88.9094 165.641C88.9146 165.8 88.8836 165.958 88.8187 166.104L78.79 188.675C78.6656 188.955 78.4389 189.181 78.1531 189.31C77.8673 189.439 77.5425 189.461 77.2407 189.373L66.5425 186.252C66.4061 186.212 66.2801 186.144 66.1732 186.053C66.0663 185.962 65.9811 185.849 65.9232 185.723C65.8654 185.597 65.8364 185.461 65.8381 185.323C65.8399 185.185 65.8724 185.049 65.9334 184.925L76.533 163.288C76.6892 162.97 76.9534 162.712 77.2818 162.559C77.6102 162.405 77.9831 162.365 78.3385 162.444L79.576 162.721C79.5457 162.914 79.5917 163.111 79.7049 163.272C79.8181 163.433 79.9901 163.548 80.1865 163.592Z" fill="#2472FF"/>
</g>
<g id="legs">
<path id="Vector_22" d="M53.6544 281.992L60.2762 281.991L63.4255 257.293L53.652 257.293L53.6544 281.992Z" fill="#FFB8B8"/>
<path id="Vector_23" d="M73.0475 287.936L52.2357 287.938L52.235 280.162L65.0059 280.161C66.0618 280.161 67.1075 280.362 68.0831 280.753C69.0587 281.143 69.9452 281.716 70.6919 282.438C71.4386 283.16 72.031 284.017 72.4352 284.96C72.8394 285.904 73.0474 286.915 73.0475 287.936L73.0475 287.936Z" fill="#2F2E41"/>
<path id="Vector_24" d="M17.9607 281.992L24.5831 281.991L27.7318 257.293L17.9584 257.293L17.9607 281.992Z" fill="#FFB8B8"/>
<path id="Vector_25" d="M37.3543 287.936L16.5425 287.938L16.5418 280.162L29.3126 280.161C31.4452 280.161 33.4905 280.98 34.9986 282.438C36.5067 283.896 37.3541 285.874 37.3543 287.936L37.3543 287.936Z" fill="#2F2E41"/>
<path id="Vector_26" d="M16.0332 277.016C15.685 277.016 15.3403 276.949 15.0195 276.818C14.6986 276.687 14.4081 276.495 14.1651 276.254C13.9221 276.013 13.7316 275.727 13.6047 275.414C13.4778 275.1 13.4171 274.765 13.4263 274.429L15.9571 181.554L16.2331 181.548L58.0691 180.666L65.2925 270.975C65.332 271.525 65.1848 272.072 64.8731 272.534C64.5614 272.995 64.1024 273.345 63.5659 273.531L63.4865 273.546L55.2756 274.032C54.9293 274.145 54.5623 274.186 54.1984 274.153C53.8345 274.12 53.4818 274.013 53.1633 273.84C52.8449 273.666 52.5677 273.43 52.3497 273.146C52.1318 272.863 51.978 272.538 51.8984 272.193L38.5137 214.28C38.4695 214.089 38.358 213.919 38.1983 213.799C38.0386 213.68 37.8407 213.617 37.6386 213.623C37.4366 213.63 37.2431 213.704 37.0914 213.833C36.9397 213.962 36.8394 214.138 36.8076 214.331L26.9194 274.481C26.8234 275.05 26.529 275.571 26.085 275.957C25.641 276.343 25.074 276.571 24.478 276.602L16.1647 277.012C16.1208 277.015 16.0769 277.016 16.0332 277.016Z" fill="#2F2E41"/>
</g>
</g>
</g>
</svg>
