<svg width="268" height="289" viewBox="0 0 268 289" fill="none" xmlns="http://www.w3.org/2000/svg">
<g id="social" clip-path="url(#clip0)">
<g id="social_2">
<g id="twitter">
<path id="twitter_icon" d="M246.809 37.4475L249.611 36.9087C249.611 36.9087 247.257 39.4412 246.809 39.6029C246.767 40.1409 246.767 40.6813 246.809 41.2193C241.43 63.4192 221.595 53.6125 221.595 53.6125C228.823 53.7741 229.44 50.9183 229.44 50.9183C225.237 50.3256 224.397 47.6853 224.397 47.6853C224.774 47.8766 225.211 47.9274 225.625 47.8279C226.038 47.7285 226.399 47.4859 226.638 47.1465C222.1 46.0149 222.716 41.7582 222.716 41.7582C223.525 42.3198 224.47 42.6724 225.462 42.782C224.957 42.1893 220.699 37.2859 223.276 34.7534C223.276 34.7534 226.414 40.1417 234.651 40.6266L235.211 40.5189C235.116 40.1308 235.078 39.7317 235.099 39.3334C235.099 37.8329 235.719 36.3939 236.822 35.3328C237.925 34.2718 239.422 33.6757 240.982 33.6757C244.904 33.6757 245.745 35.831 245.745 35.831L248.546 34.2146C248.49 34.2146 248.21 36.9087 246.809 37.4475Z" fill="white"/>
<path id="circle" d="M233.362 66.2762C228.707 66.2762 224.158 64.9489 220.288 62.4622C216.418 59.9755 213.401 56.441 211.62 52.3058C209.839 48.1705 209.373 43.6202 210.281 39.2302C211.189 34.8403 213.43 30.8078 216.722 27.6428C220.013 24.4778 224.206 22.3225 228.771 21.4492C233.336 20.576 238.067 21.0242 242.368 22.7371C246.668 24.45 250.343 27.3506 252.929 31.0722C255.515 34.7939 256.895 39.1693 256.895 43.6453C256.888 49.6453 254.406 55.3976 249.994 59.6403C245.583 63.8829 239.601 66.2694 233.362 66.2762ZM233.362 22.0921C228.929 22.0921 224.596 23.3561 220.91 25.7244C217.225 28.0927 214.352 31.4589 212.656 35.3972C210.959 39.3356 210.515 43.6692 211.38 47.8501C212.245 52.031 214.38 55.8715 217.514 58.8857C220.648 61.9 224.642 63.9528 228.989 64.7844C233.337 65.616 237.843 65.1892 241.939 63.5579C246.034 61.9266 249.534 59.1641 251.997 55.6196C254.46 52.0752 255.774 47.9081 255.774 43.6453C255.767 37.931 253.404 32.4526 249.202 28.412C245.001 24.3714 239.304 22.0985 233.362 22.0921Z" fill="#CCCCCC"/>
<g id="twitter_notification">
<path id="Vector" d="M250.514 73.3761C255.753 73.3761 260 69.292 260 64.254C260 59.216 255.753 55.1319 250.514 55.1319C245.276 55.1319 241.029 59.216 241.029 64.254C241.029 69.292 245.276 73.3761 250.514 73.3761Z" fill="#3F3D56"/>
<path id="Vector_2" d="M249.387 65.7452C249.355 66.2347 249.499 66.7201 249.794 67.1198C249.899 67.2647 250.038 67.3839 250.2 67.4681C250.361 67.5522 250.541 67.5989 250.724 67.6045C250.887 67.606 251.047 67.5708 251.193 67.5019C251.339 67.433 251.466 67.3323 251.564 67.2077C251.823 66.8223 251.941 66.365 251.9 65.9078C251.94 65.4277 251.813 64.9485 251.538 64.5459C251.434 64.4134 251.3 64.3057 251.145 64.2308C250.991 64.156 250.821 64.1161 250.649 64.1142C250.476 64.1123 250.305 64.1484 250.149 64.2198C249.993 64.2912 249.856 64.396 249.749 64.5261C249.483 64.8789 249.355 65.3106 249.387 65.7452ZM253.502 61.7609L251.745 61.9565C251.731 61.659 251.612 61.3749 251.409 61.1507C251.316 61.0636 251.205 60.9957 251.084 60.951C250.963 60.9063 250.834 60.8858 250.705 60.8907C250.511 60.8933 250.32 60.9422 250.151 61.0328C249.981 61.1235 249.837 61.2532 249.732 61.4104C249.382 62.0812 249.21 62.8252 249.232 63.5756C249.427 63.3234 249.682 63.1189 249.975 62.9787C250.268 62.8385 250.591 62.7666 250.918 62.7686C251.289 62.7673 251.656 62.8447 251.993 62.9954C252.329 63.1461 252.627 63.3663 252.865 63.6404C253.422 64.2641 253.711 65.0678 253.676 65.889C253.719 66.7479 253.413 67.5894 252.823 68.2355C252.523 68.5341 252.16 68.7672 251.758 68.9189C251.356 69.0706 250.924 69.1375 250.493 69.115C250.062 69.0924 249.641 68.981 249.258 68.7882C248.876 68.5954 248.541 68.3258 248.276 67.9977C247.66 67.2506 247.352 66.0255 247.352 64.3224C247.352 62.5759 247.673 61.317 248.315 60.5459C248.607 60.1769 248.986 59.8796 249.42 59.6785C249.855 59.4774 250.333 59.3782 250.815 59.3889C251.469 59.3664 252.107 59.5836 252.601 59.9965C253.106 60.4656 253.425 61.0897 253.502 61.7609Z" fill="#3F3D56"/>
<path id="Vector_3" d="M250.514 73.3761C255.753 73.3761 260 69.292 260 64.254C260 59.216 255.753 55.1319 250.514 55.1319C245.276 55.1319 241.029 59.216 241.029 64.254C241.029 69.292 245.276 73.3761 250.514 73.3761Z" fill="#2472FF"/>
<path id="Vector_4" d="M249.387 65.7452C249.355 66.2347 249.499 66.7201 249.794 67.1198C249.899 67.2647 250.038 67.3839 250.2 67.4681C250.361 67.5522 250.541 67.5989 250.724 67.6045C250.887 67.606 251.047 67.5708 251.193 67.5019C251.339 67.433 251.466 67.3323 251.564 67.2077C251.823 66.8223 251.941 66.365 251.9 65.9078C251.94 65.4277 251.813 64.9485 251.538 64.5459C251.434 64.4134 251.3 64.3057 251.145 64.2308C250.991 64.156 250.821 64.1161 250.649 64.1142C250.476 64.1123 250.305 64.1484 250.149 64.2198C249.993 64.2912 249.856 64.396 249.749 64.5261C249.483 64.8789 249.355 65.3106 249.387 65.7452ZM253.502 61.7609L251.745 61.9565C251.731 61.659 251.612 61.3749 251.409 61.1507C251.316 61.0636 251.205 60.9957 251.084 60.951C250.963 60.9063 250.834 60.8858 250.705 60.8907C250.511 60.8933 250.32 60.9422 250.151 61.0328C249.981 61.1235 249.837 61.2532 249.732 61.4104C249.382 62.0812 249.21 62.8252 249.232 63.5756C249.427 63.3234 249.682 63.1189 249.975 62.9787C250.268 62.8385 250.591 62.7666 250.918 62.7686C251.289 62.7673 251.656 62.8447 251.993 62.9954C252.329 63.1461 252.627 63.3663 252.865 63.6404C253.422 64.2641 253.711 65.0678 253.676 65.889C253.719 66.7479 253.413 67.5894 252.823 68.2355C252.523 68.5341 252.16 68.7672 251.758 68.9189C251.356 69.0706 250.924 69.1375 250.493 69.115C250.062 69.0924 249.641 68.981 249.258 68.7882C248.876 68.5954 248.541 68.3258 248.276 67.9977C247.66 67.2506 247.352 66.0255 247.352 64.3224C247.352 62.5759 247.673 61.317 248.315 60.5459C248.607 60.1769 248.986 59.8796 249.42 59.6785C249.855 59.4774 250.333 59.3782 250.815 59.3889C251.469 59.3664 252.107 59.5836 252.601 59.9965C253.106 60.4656 253.425 61.0897 253.502 61.7609Z" fill="white"/>
</g>
</g>
<g id="linkedin">
<path id="linkedin_icon" d="M201.8 102.916L181.033 102.918C180.766 102.905 180.499 102.944 180.248 103.031C179.996 103.118 179.765 103.252 179.567 103.425C179.37 103.598 179.21 103.807 179.097 104.04C178.983 104.273 178.919 104.525 178.907 104.781L178.909 124.796C178.923 125.335 179.152 125.848 179.547 126.229C179.943 126.61 180.475 126.831 181.035 126.847L201.796 126.845C202.342 126.824 202.858 126.598 203.232 126.214C203.605 125.83 203.807 125.32 203.792 124.794L203.79 104.779C203.794 104.529 203.746 104.281 203.646 104.049C203.547 103.818 203.4 103.609 203.213 103.434C203.027 103.26 202.805 103.124 202.562 103.034C202.319 102.945 202.06 102.905 201.8 102.916ZM186.622 122.863L183.057 122.864L183.056 112.205L186.621 112.205L186.622 122.863ZM184.962 110.584H184.936C184.423 110.581 183.933 110.382 183.572 110.032C183.211 109.681 183.009 109.207 183.011 108.714C183.012 108.221 183.217 107.748 183.581 107.4C183.944 107.052 184.436 106.856 184.949 106.856C185.462 106.856 185.954 107.052 186.317 107.4C186.681 107.748 186.886 108.221 186.887 108.714C186.889 109.207 186.687 109.681 186.326 110.032C185.965 110.382 185.475 110.581 184.962 110.584ZM199.65 122.862L196.085 122.862L196.085 117.035C196.085 115.638 195.566 114.684 194.276 114.684C193.873 114.688 193.48 114.811 193.153 115.038C192.826 115.264 192.579 115.583 192.448 115.95C192.353 116.221 192.312 116.506 192.325 116.792L192.326 122.863L188.761 122.863L188.76 112.204L192.325 112.204L192.325 113.687C192.649 113.148 193.119 112.702 193.685 112.397C194.25 112.092 194.891 111.939 195.539 111.954C197.879 111.954 199.65 113.437 199.65 116.635V122.862Z" fill="white"/>
<path id="circle_2" d="M191.339 137.941C186.684 137.941 182.135 136.613 178.265 134.127C174.395 131.64 171.378 128.106 169.597 123.97C167.816 119.835 167.35 115.285 168.258 110.895C169.166 106.505 171.407 102.472 174.699 99.3074C177.99 96.1424 182.183 93.987 186.748 93.1138C191.313 92.2406 196.044 92.6887 200.345 94.4016C204.645 96.1145 208.32 99.0152 210.906 102.737C213.492 106.458 214.872 110.834 214.872 115.31C214.865 121.31 212.383 127.062 207.971 131.305C203.56 135.547 197.578 137.934 191.339 137.941ZM191.339 93.7566C186.906 93.7566 182.573 95.0207 178.887 97.389C175.202 99.7573 172.329 103.123 170.633 107.062C168.936 111 168.492 115.334 169.357 119.515C170.222 123.696 172.357 127.536 175.491 130.55C178.625 133.565 182.619 135.617 186.966 136.449C191.314 137.281 195.82 136.854 199.916 135.222C204.011 133.591 207.511 130.829 209.974 127.284C212.437 123.74 213.751 119.573 213.751 115.31C213.744 109.596 211.381 104.117 207.179 100.077C202.978 96.0359 197.281 93.763 191.339 93.7566Z" fill="#CCCCCC"/>
<g id="linkedin_notification">
<path id="Vector_5" d="M210.596 143.853C215.835 143.853 220.082 139.769 220.082 134.731C220.082 129.693 215.835 125.609 210.596 125.609C205.357 125.609 201.11 129.693 201.11 134.731C201.11 139.769 205.357 143.853 210.596 143.853Z" fill="#3F3D56"/>
<path id="Vector_6" d="M209.422 132.451C209.412 132.606 209.435 132.761 209.488 132.907C209.542 133.053 209.625 133.187 209.733 133.302C209.842 133.405 209.972 133.485 210.115 133.538C210.258 133.591 210.41 133.614 210.563 133.607C210.717 133.614 210.872 133.59 211.016 133.537C211.16 133.484 211.292 133.403 211.402 133.299C211.511 133.184 211.595 133.049 211.649 132.902C211.704 132.756 211.727 132.6 211.717 132.445C211.725 132.295 211.701 132.145 211.648 132.004C211.594 131.863 211.512 131.733 211.406 131.623C211.299 131.519 211.17 131.438 211.028 131.385C210.886 131.332 210.735 131.308 210.583 131.315C210.427 131.307 210.271 131.331 210.126 131.385C209.98 131.439 209.847 131.521 209.737 131.626C209.63 131.737 209.547 131.867 209.493 132.008C209.439 132.15 209.414 132.301 209.422 132.451ZM209.251 136.531C209.225 136.956 209.364 137.375 209.642 137.706C209.762 137.841 209.911 137.949 210.079 138.022C210.248 138.095 210.431 138.132 210.616 138.128C210.794 138.132 210.972 138.098 211.135 138.028C211.299 137.957 211.444 137.853 211.56 137.722C211.831 137.389 211.964 136.972 211.934 136.55C211.954 136.158 211.818 135.774 211.554 135.476C211.434 135.344 211.285 135.239 211.119 135.169C210.952 135.099 210.771 135.065 210.589 135.069C210.394 135.056 210.199 135.092 210.023 135.173C209.847 135.254 209.695 135.377 209.582 135.531C209.367 135.823 209.251 136.172 209.251 136.531ZM209.042 134.29C208.613 134.129 208.249 133.841 208.002 133.468C207.786 133.122 207.673 132.725 207.677 132.322C207.667 131.994 207.729 131.668 207.858 131.365C207.987 131.061 208.181 130.788 208.428 130.561C209.04 130.111 209.789 129.866 210.56 129.866C211.331 129.866 212.08 130.111 212.692 130.561C212.94 130.787 213.136 131.06 213.267 131.364C213.397 131.667 213.46 131.994 213.45 132.322C213.459 132.74 213.337 133.151 213.101 133.502C212.865 133.852 212.524 134.127 212.124 134.29C212.617 134.466 213.039 134.786 213.332 135.206C213.625 135.625 213.774 136.122 213.758 136.628C213.781 137.025 213.716 137.423 213.567 137.794C213.419 138.166 213.19 138.503 212.896 138.783C212.603 139.064 212.25 139.281 211.863 139.421C211.476 139.562 211.062 139.621 210.649 139.596C209.86 139.624 209.086 139.382 208.464 138.915C208.125 138.649 207.855 138.311 207.677 137.928C207.498 137.544 207.415 137.125 207.434 136.705C207.429 136.208 207.563 135.718 207.821 135.287C208.104 134.835 208.532 134.485 209.042 134.29Z" fill="#3F3D56"/>
<path id="Vector_7" d="M210.596 143.853C215.835 143.853 220.082 139.769 220.082 134.731C220.082 129.693 215.835 125.609 210.596 125.609C205.357 125.609 201.11 129.693 201.11 134.731C201.11 139.769 205.357 143.853 210.596 143.853Z" fill="#2472FF"/>
<path id="Vector_8" d="M209.422 132.451C209.412 132.606 209.435 132.761 209.488 132.907C209.542 133.053 209.625 133.187 209.733 133.302C209.842 133.405 209.972 133.485 210.115 133.538C210.258 133.591 210.41 133.614 210.563 133.607C210.717 133.614 210.872 133.59 211.016 133.537C211.16 133.484 211.292 133.403 211.402 133.299C211.511 133.184 211.595 133.049 211.649 132.902C211.704 132.756 211.727 132.6 211.717 132.445C211.725 132.295 211.701 132.145 211.648 132.004C211.594 131.863 211.512 131.733 211.406 131.623C211.299 131.519 211.17 131.438 211.028 131.385C210.886 131.332 210.735 131.308 210.583 131.315C210.427 131.307 210.271 131.331 210.126 131.385C209.98 131.439 209.847 131.521 209.737 131.626C209.63 131.737 209.547 131.867 209.493 132.008C209.439 132.15 209.414 132.301 209.422 132.451ZM209.251 136.531C209.225 136.956 209.364 137.375 209.642 137.706C209.762 137.841 209.911 137.949 210.079 138.022C210.248 138.095 210.431 138.132 210.616 138.128C210.794 138.132 210.972 138.098 211.135 138.028C211.299 137.957 211.444 137.853 211.56 137.722C211.831 137.389 211.964 136.972 211.934 136.55C211.954 136.158 211.818 135.774 211.554 135.476C211.434 135.344 211.285 135.239 211.119 135.169C210.952 135.099 210.771 135.065 210.589 135.069C210.394 135.056 210.199 135.092 210.023 135.173C209.847 135.254 209.695 135.377 209.582 135.531C209.367 135.823 209.251 136.172 209.251 136.531ZM209.042 134.29C208.613 134.129 208.249 133.841 208.002 133.468C207.786 133.122 207.673 132.725 207.677 132.322C207.667 131.994 207.729 131.668 207.858 131.365C207.987 131.061 208.181 130.788 208.428 130.561C209.04 130.111 209.789 129.866 210.56 129.866C211.331 129.866 212.08 130.111 212.692 130.561C212.94 130.787 213.136 131.06 213.267 131.364C213.397 131.667 213.46 131.994 213.45 132.322C213.459 132.74 213.337 133.151 213.101 133.502C212.865 133.852 212.524 134.127 212.124 134.29C212.617 134.466 213.039 134.786 213.332 135.206C213.625 135.625 213.774 136.122 213.758 136.628C213.781 137.025 213.716 137.423 213.567 137.794C213.419 138.166 213.19 138.503 212.896 138.783C212.603 139.064 212.25 139.281 211.863 139.421C211.476 139.562 211.062 139.621 210.649 139.596C209.86 139.624 209.086 139.382 208.464 138.915C208.125 138.649 207.855 138.311 207.677 137.928C207.498 137.544 207.415 137.125 207.434 136.705C207.429 136.208 207.563 135.718 207.821 135.287C208.104 134.835 208.532 134.485 209.042 134.29Z" fill="white"/>
</g>
</g>
<g id="fb">
<path id="fb_icon" fill-rule="evenodd" clip-rule="evenodd" d="M157.976 22.7197C157.976 19.8926 157.133 17.1248 155.547 14.744C153.962 12.3632 151.7 10.4692 149.03 9.28601C146.36 8.10288 143.394 7.68022 140.482 8.06809C137.57 8.45596 134.834 9.63812 132.599 11.4746C130.364 13.3111 128.723 15.725 127.87 18.4305C127.017 21.1361 126.988 24.02 127.787 26.7409C128.585 29.4617 130.178 31.9056 132.376 33.7831C134.573 35.6607 137.285 36.8933 140.188 37.335V26.9975H136.281V22.7197H140.188V19.4597C140.188 15.7526 142.486 13.7032 145.999 13.7032C147.153 13.7186 148.304 13.8153 149.443 13.9925V17.6336H147.503C145.593 17.6336 144.995 18.7735 144.995 19.9451V22.7204H149.261L148.58 26.9982H144.995V37.3363C148.614 36.7851 151.91 35.0102 154.289 32.3308C156.669 29.6514 157.976 26.2433 157.976 22.7197V22.7197Z" fill="white"/>
<path id="circle_3" d="M142.592 45.2618C137.938 45.2618 133.388 43.9345 129.518 41.4478C125.648 38.9611 122.632 35.4266 120.851 31.2914C119.069 27.1561 118.603 22.6058 119.511 18.2158C120.419 13.8259 122.661 9.79342 125.952 6.62843C129.243 3.46344 133.436 1.30806 138.001 0.434841C142.566 -0.438377 147.298 0.00979181 151.598 1.72267C155.898 3.43555 159.573 6.3362 162.159 10.0578C164.745 13.7795 166.125 18.1549 166.125 22.6309C166.118 28.6309 163.636 34.3832 159.225 38.6259C154.813 42.8685 148.831 45.255 142.592 45.2618ZM142.592 1.07765C138.159 1.07765 133.826 2.34173 130.141 4.71003C126.455 7.07833 123.582 10.4445 121.886 14.3828C120.19 18.3212 119.746 22.6548 120.611 26.8357C121.475 31.0166 123.61 34.8571 126.744 37.8713C129.879 40.8856 133.872 42.9384 138.22 43.77C142.567 44.6016 147.074 44.1748 151.169 42.5435C155.264 40.9122 158.765 38.1497 161.227 34.6052C163.69 31.0608 165.004 26.8937 165.004 22.6309C164.998 16.9166 162.634 11.4382 158.433 7.39759C154.231 3.35697 148.534 1.08411 142.592 1.07765Z" fill="#CCCCCC"/>
<g id="fb_notification">
<path id="Vector_9" d="M160.174 50.5591C165.355 50.5591 169.556 46.475 169.556 41.4371C169.556 36.3991 165.355 32.315 160.174 32.315C154.992 32.315 150.791 36.3991 150.791 41.4371C150.791 46.475 154.992 50.5591 160.174 50.5591Z" fill="#3F3D56"/>
<path id="Vector_10" d="M162.05 46.3022H160.14V39.3022C159.435 39.9405 158.592 40.4211 157.671 40.7098V39.0243C158.262 38.8151 158.812 38.5099 159.296 38.1221C159.844 37.7275 160.262 37.1893 160.5 36.572H162.05V46.3022Z" fill="#3F3D56"/>
<path id="Vector_11" d="M160.174 50.5591C165.355 50.5591 169.556 46.475 169.556 41.4371C169.556 36.3991 165.355 32.315 160.174 32.315C154.992 32.315 150.791 36.3991 150.791 41.4371C150.791 46.475 154.992 50.5591 160.174 50.5591Z" fill="#2472FF"/>
<path id="Vector_12" d="M162.05 46.3022H160.14V39.3022C159.435 39.9405 158.592 40.4211 157.671 40.7098V39.0243C158.262 38.8151 158.812 38.5099 159.296 38.1221C159.844 37.7275 160.262 37.1893 160.5 36.572H162.05V46.3022Z" fill="white"/>
</g>
</g>
<g id="person">
<g id="head">
<path id="Vector_13" d="M59.1401 102.37C66.7404 102.37 72.9018 96.4445 72.9018 89.1354C72.9018 81.8264 66.7404 75.9012 59.1401 75.9012C51.5397 75.9012 45.3783 81.8264 45.3783 89.1354C45.3783 96.4445 51.5397 102.37 59.1401 102.37Z" fill="#FFB8B8"/>
<path id="Vector_14" d="M55.7894 102.369C53.7182 102.412 51.661 102.033 49.7529 101.257C47.8449 100.481 46.1292 99.3256 44.7186 97.8665C43.308 96.4074 42.2345 94.6777 41.5686 92.7912C40.9027 90.9046 40.6594 88.9039 40.8548 86.9205C41.0502 84.9372 41.6799 83.016 42.7024 81.2833C43.7249 79.5506 45.1171 78.0456 46.7875 76.8672C48.4579 75.6888 50.3687 74.8636 52.3944 74.446C54.42 74.0284 56.5146 74.0277 58.5406 74.4441C61.5669 72.677 65.0854 71.4879 68.6119 71.7903C72.1385 72.0928 75.6261 74.1062 76.9448 77.266C78.2635 80.4258 76.8468 84.5909 73.5678 85.875C71.4656 86.6983 69.0917 86.299 66.8483 85.9671C64.6049 85.6351 62.1575 85.4184 60.2051 86.5316C58.2526 87.6448 57.3749 90.6297 59.1235 92.0214C60.0505 92.7884 60.7124 93.8088 61.0211 94.9467C61.3298 96.0845 61.2707 97.2858 60.8516 98.3906C59.9728 100.576 57.5742 102.332 55.7894 102.369Z" fill="#2F2E41"/>
</g>
<g id="arms">
<path id="Vector_15" d="M106.196 175.444C106.1 174.711 105.838 174.008 105.428 173.383C105.019 172.758 104.472 172.227 103.826 171.827C103.18 171.428 102.451 171.169 101.69 171.07C100.928 170.971 100.154 171.033 99.4206 171.253L91.7297 162.386L84.9871 165.567L96.031 177.941C96.4965 179.101 97.3883 180.057 98.5376 180.627C99.6869 181.197 101.014 181.342 102.267 181.035C103.52 180.727 104.612 179.988 105.336 178.957C106.06 177.927 106.366 176.677 106.196 175.444Z" fill="#FFB8B8"/>
<path id="Vector_16" d="M40.0049 184.411C40.3327 183.743 40.5041 183.014 40.5072 182.276C40.5102 181.537 40.3448 180.807 40.0227 180.136C39.7005 179.466 39.2293 178.871 38.6424 178.395C38.0555 177.918 37.3671 177.571 36.6256 177.378L35.0816 165.928L27.6172 165.133L30.0339 181.274C29.7794 182.493 29.9988 183.76 30.6506 184.834C31.3024 185.908 32.3412 186.715 33.5703 187.102C34.7993 187.488 36.1332 187.428 37.3192 186.932C38.5051 186.436 39.4607 185.539 40.0049 184.411L40.0049 184.411Z" fill="#FFB8B8"/>
<path id="Vector_17" d="M29.5587 177.41C28.9542 177.41 28.3699 177.201 27.9122 176.821C27.4545 176.441 27.1538 175.916 27.065 175.341L23.3909 151.547C22.9292 148.552 23.3026 145.493 24.473 142.682L35.7527 115.611C36.214 114.504 36.9708 113.533 37.9468 112.797C38.9228 112.061 40.0835 111.586 41.3116 111.419C42.5397 111.252 43.7918 111.4 44.9416 111.847C46.0914 112.294 47.0981 113.026 47.8602 113.967H47.8603C48.6478 114.937 49.1453 116.095 49.2993 117.317C49.4533 118.538 49.258 119.777 48.7343 120.9L43.4167 132.339C37.4531 145.171 35.203 159.313 36.9039 173.273C36.9727 173.837 36.8338 174.405 36.5115 174.881C36.1892 175.356 35.7038 175.707 35.1398 175.873L30.2993 177.303C30.0593 177.374 29.8097 177.41 29.5587 177.41Z" fill="#CCCCCC"/>
<path id="Vector_18" d="M50.4259 182.053C45.3899 182.053 40.992 181.321 38.5636 179.233C37.003 177.892 36.3281 176.067 36.5577 173.811C37.4207 165.328 35.9252 146.736 34.5187 132.632C34.1966 129.324 34.5617 125.988 35.5929 122.817C36.6241 119.647 38.3007 116.705 40.5252 114.163C42.6656 111.701 45.3006 109.679 48.2725 108.219C51.2444 106.759 54.492 105.89 57.8211 105.665C62.454 105.348 73.303 104.608 76.6752 112.914C81.7411 125.391 79.2634 131.113 76.8674 136.647C74.8317 141.348 72.7267 146.209 75.3069 155.338C76.7323 160.386 78.4584 165.351 80.4769 170.209C81.8741 173.654 82.5754 175.384 81.9279 176.513C81.4171 177.404 80.1429 177.792 77.9704 178.197C77.2608 178.329 76.3232 178.521 75.2065 178.749C69.5293 179.909 59.0437 182.053 50.4259 182.053Z" fill="#CCCCCC"/>
<path id="Vector_19" d="M91.7717 174.233C91.7523 174.233 91.733 174.233 91.7136 174.232C91.3506 174.224 90.9936 174.141 90.6672 173.988C90.3408 173.835 90.0526 173.616 89.8223 173.346L75.5572 156.63C72.5113 153.058 70.5058 148.773 69.7455 144.212L65.3532 117.814C65.2051 116.924 65.2431 116.014 65.465 115.138C65.6869 114.262 66.0883 113.438 66.6456 112.713C67.2029 111.988 67.905 111.377 68.7108 110.916C69.5166 110.455 70.4098 110.153 71.3383 110.028C72.2669 109.903 73.212 109.958 74.1183 110.188C75.0247 110.419 75.8742 110.821 76.617 111.371C77.3599 111.921 77.9812 112.608 78.4446 113.392C78.908 114.176 79.2042 115.04 79.3159 115.936L81.0621 129.937C82.6767 142.871 87.8926 155.145 96.1591 165.464L97.157 166.709C97.5172 167.159 97.7021 167.715 97.6796 168.282C97.657 168.849 97.4284 169.39 97.0336 169.812L93.6451 173.431C93.4088 173.683 93.1199 173.885 92.7972 174.023C92.4744 174.161 92.125 174.233 91.7717 174.233Z" fill="#CCCCCC"/>
</g>
<g id="phone">
<path id="Vector_20" d="M109.247 158.123C109.413 158.192 109.563 158.292 109.69 158.416C109.816 158.541 109.915 158.689 109.982 158.85C110.049 159.012 110.082 159.185 110.08 159.359C110.077 159.533 110.039 159.704 109.967 159.864L108.096 164.043L108.309 164.148L107.033 166.984L106.829 166.875L100.126 181.847C99.8964 182.36 99.481 182.775 98.957 183.014C98.4331 183.254 97.8364 183.302 97.2783 183.149L86.8564 180.302C86.6027 180.232 86.3678 180.11 86.1682 179.945C85.9686 179.779 85.8091 179.573 85.701 179.342C85.5929 179.11 85.5387 178.859 85.5423 178.605C85.5458 178.352 85.6071 178.102 85.7216 177.873L96.2262 156.925C96.4468 156.485 96.8166 156.13 97.2746 155.919C97.7327 155.708 98.2518 155.653 98.7467 155.763L109.002 158.047C109.086 158.065 109.168 158.091 109.247 158.123Z" fill="#3F3D56"/>
<path id="Vector_21" d="M100.573 157.377L105.964 158.578C106.061 158.6 106.162 158.59 106.253 158.55C106.344 158.511 106.418 158.443 106.465 158.359C106.519 158.263 106.603 158.187 106.706 158.142C106.808 158.097 106.924 158.086 107.034 158.111L108.169 158.364C108.324 158.398 108.469 158.465 108.595 158.559C108.72 158.654 108.822 158.773 108.894 158.91C108.966 159.046 109.005 159.196 109.01 159.349C109.015 159.502 108.985 159.654 108.923 159.795L99.2217 181.508C99.1013 181.778 98.882 181.995 98.6056 182.119C98.3292 182.243 98.015 182.264 97.723 182.18L87.3745 179.177C87.2424 179.139 87.1206 179.073 87.0172 178.986C86.9138 178.898 86.8313 178.79 86.7754 178.668C86.7195 178.547 86.6914 178.416 86.6931 178.283C86.6948 178.151 86.7262 178.02 86.7852 177.9L97.0384 157.086C97.1895 156.779 97.4451 156.531 97.7628 156.384C98.0804 156.236 98.4411 156.197 98.7849 156.274L99.982 156.54C99.9527 156.726 99.9972 156.915 100.107 157.07C100.216 157.225 100.383 157.335 100.573 157.377Z" fill="#2472FF"/>
</g>
<g id="legs">
<path id="Vector_22" d="M74.9075 271.28L81.3129 271.279L84.3593 247.519L74.9052 247.52L74.9075 271.28Z" fill="#FFB8B8"/>
<path id="Vector_23" d="M93.6669 276.998L73.5352 277L73.5345 269.52L85.888 269.519C86.9095 269.519 87.9209 269.712 88.8646 270.088C89.8084 270.464 90.6659 271.015 91.3882 271.709C92.1105 272.404 92.6835 273.228 93.0745 274.136C93.4655 275.043 93.6668 276.016 93.6669 276.998L93.6669 276.998Z" fill="#2F2E41"/>
<path id="Vector_24" d="M40.3802 271.28L46.7862 271.279L49.832 247.519L40.378 247.52L40.3802 271.28Z" fill="#FFB8B8"/>
<path id="Vector_25" d="M59.14 276.998L39.0084 277L39.0077 269.52L51.3612 269.519C53.4241 269.519 55.4026 270.307 56.8614 271.709C58.3202 273.112 59.1399 275.014 59.14 276.998L59.14 276.998Z" fill="#2F2E41"/>
<path id="Vector_26" d="M38.5157 266.493C38.1789 266.493 37.8455 266.428 37.5351 266.302C37.2248 266.177 36.9437 265.992 36.7087 265.76C36.4736 265.528 36.2893 265.253 36.1665 264.952C36.0438 264.65 35.9851 264.328 35.994 264.004L38.4421 174.657L38.7091 174.652L79.178 173.803L86.1653 260.682C86.2035 261.211 86.061 261.737 85.7595 262.181C85.458 262.625 85.014 262.962 84.4951 263.14L84.4183 263.155L76.4757 263.622C76.1407 263.731 75.7857 263.771 75.4337 263.739C75.0817 263.707 74.7406 263.604 74.4325 263.438C74.1244 263.271 73.8563 263.044 73.6455 262.771C73.4346 262.498 73.2859 262.185 73.2088 261.853L60.2615 206.14C60.2188 205.957 60.111 205.793 59.9565 205.678C59.802 205.563 59.6105 205.503 59.4151 205.509C59.2197 205.515 59.0325 205.586 58.8858 205.71C58.739 205.834 58.642 206.004 58.6112 206.19L49.0462 264.054C48.9533 264.602 48.6686 265.103 48.2391 265.475C47.8096 265.846 47.2611 266.065 46.6846 266.095L38.6429 266.49C38.6004 266.492 38.558 266.493 38.5157 266.493Z" fill="#2F2E41"/>
</g>
</g>
</g>
</g>
<defs>
<clipPath id="clip0">
<rect width="268" height="289" fill="white"/>
</clipPath>
</defs>
</svg>
