<svg width="901" height="665" viewBox="0 0 901 665" fill="none" xmlns="http://www.w3.org/2000/svg">
<g id="welcome" clip-path="url(#clip0)">
<g id="JS">
<path id="Vector" d="M673.348 595.064C680.015 606.18 688.69 614.351 704.031 614.351C716.919 614.351 725.152 607.774 725.152 598.685C725.152 587.794 716.693 583.937 702.507 577.601L694.732 574.194C672.287 564.429 657.376 552.197 657.376 526.337C657.376 502.516 675.15 484.382 702.928 484.382C722.704 484.382 736.921 491.411 747.166 509.813L722.945 525.693C717.613 515.929 711.86 512.082 702.928 512.082C693.817 512.082 688.043 517.984 688.043 525.693C688.043 535.222 693.823 539.079 707.168 544.981L714.944 548.382C741.371 559.955 756.292 571.753 756.292 598.278C756.292 626.873 734.294 642.539 704.751 642.539C675.865 642.539 657.202 628.483 648.071 610.059L673.348 595.064ZM563.472 597.816C568.358 606.669 572.803 614.153 583.489 614.153C593.708 614.153 600.155 610.07 600.155 594.195V486.196H631.258V594.624C631.258 627.512 612.376 642.48 584.813 642.48C559.91 642.48 545.487 629.32 538.153 613.469L563.472 597.816Z" fill="black"/>
</g>
<g id="React">
<path id="Vector_2" d="M693.073 325.215C693.073 288.91 649.516 254.504 582.736 233.168C598.147 162.121 591.297 105.597 561.118 87.4999C554.161 83.255 546.028 81.2442 537.145 81.2442V106.155C542.068 106.155 546.028 107.161 549.346 109.06C563.9 117.773 570.214 150.95 565.292 193.623C564.114 204.123 562.188 215.183 559.833 226.465C538.858 221.103 515.955 216.97 491.876 214.289C477.428 193.623 462.445 174.856 447.356 158.435C482.244 124.587 514.992 106.044 537.252 106.044V81.1325C507.822 81.1325 469.295 103.027 430.339 141.008C391.384 103.251 352.857 81.5794 323.427 81.5794V106.49C345.58 106.49 378.435 124.922 413.323 158.546C398.341 174.968 383.358 193.623 369.124 214.289C344.938 216.97 322.035 221.103 301.06 226.577C298.598 215.406 296.779 204.57 295.494 194.181C290.465 151.509 296.672 118.331 311.119 109.506C314.33 107.496 318.504 106.602 323.427 106.602V81.6911C314.437 81.6911 306.303 83.7018 299.24 87.9467C269.168 106.044 262.425 162.456 277.943 233.279C211.377 254.727 168.034 289.022 168.034 325.215C168.034 361.521 211.591 395.927 278.371 417.263C262.96 488.31 269.81 544.834 299.989 562.931C306.946 567.176 315.079 569.187 324.069 569.187C353.499 569.187 392.026 547.292 430.982 509.311C469.937 547.068 508.464 568.74 537.894 568.74C546.884 568.74 555.018 566.729 562.081 562.484C592.153 544.387 598.896 487.974 583.378 417.151C649.73 395.815 693.073 361.409 693.073 325.215ZM553.733 250.706C549.774 265.116 544.851 279.973 539.286 294.831C534.898 285.894 530.296 276.957 525.266 268.021C520.343 259.084 515.099 250.371 509.855 241.881C525.052 244.227 539.714 247.131 553.733 250.706ZM504.718 369.675C496.371 384.756 487.809 399.055 478.926 412.348C462.981 413.8 446.821 414.582 430.554 414.582C414.394 414.582 398.234 413.8 382.395 412.46C373.512 399.166 364.843 384.979 356.496 370.01C348.362 355.377 340.978 340.519 334.236 325.55C340.871 310.582 348.362 295.613 356.389 280.979C364.736 265.898 373.298 251.6 382.181 238.306C398.126 236.854 414.287 236.072 430.554 236.072C446.714 236.072 462.873 236.854 478.712 238.195C487.595 251.488 496.264 265.675 504.611 280.644C512.745 295.278 520.129 310.135 526.871 325.104C520.129 340.073 512.745 355.041 504.718 369.675ZM539.286 355.153C545.065 370.122 549.988 385.091 554.054 399.613C540.035 403.188 525.266 406.204 509.962 408.55C515.206 399.948 520.45 391.123 525.373 382.075C530.296 373.138 534.898 364.09 539.286 355.153ZM430.768 474.346C420.815 463.622 410.862 451.669 401.016 438.599C410.648 439.046 420.494 439.381 430.446 439.381C440.506 439.381 450.459 439.158 460.198 438.599C450.566 451.669 440.613 463.622 430.768 474.346ZM351.145 408.55C335.948 406.204 321.286 403.3 307.267 399.725C311.226 385.314 316.149 370.457 321.714 355.6C326.102 364.537 330.704 373.473 335.734 382.41C340.764 391.347 345.901 400.06 351.145 408.55ZM430.232 176.085C440.185 186.809 450.138 198.761 459.984 211.831C450.352 211.385 440.506 211.049 430.554 211.049C420.494 211.049 410.541 211.273 400.802 211.831C410.434 198.761 420.387 186.809 430.232 176.085ZM351.038 241.881C345.794 250.482 340.55 259.307 335.627 268.356C330.704 277.292 326.102 286.229 321.714 295.166C315.935 280.197 311.012 265.228 306.946 250.706C320.965 247.243 335.734 244.227 351.038 241.881ZM254.185 381.74C216.3 364.872 191.792 342.754 191.792 325.215C191.792 307.677 216.3 285.447 254.185 268.691C263.389 264.558 273.448 260.871 283.829 257.408C289.929 279.303 297.956 302.092 307.909 325.439C298.063 348.674 290.143 371.351 284.15 393.134C273.555 389.671 263.496 385.873 254.185 381.74ZM311.761 541.371C297.207 532.658 290.893 499.48 295.816 456.808C296.993 446.307 298.919 435.248 301.274 423.966C322.249 429.328 345.152 433.461 369.231 436.142C383.679 456.808 398.662 475.575 413.751 491.996C378.863 525.844 346.115 544.387 323.855 544.387C319.039 544.276 314.972 543.27 311.761 541.371ZM565.613 456.249C570.642 498.922 564.435 532.099 549.988 540.924C546.777 542.935 542.603 543.829 537.68 543.829C515.527 543.829 482.672 525.397 447.784 491.773C462.767 475.351 477.749 456.696 491.983 436.03C516.169 433.349 539.072 429.216 560.048 423.742C562.509 435.025 564.435 445.86 565.613 456.249ZM606.815 381.74C597.611 385.873 587.552 389.559 577.171 393.022C571.071 371.128 563.044 348.339 553.091 324.992C562.937 301.757 570.857 279.08 576.85 257.297C587.445 260.76 597.504 264.558 606.922 268.691C644.807 285.559 669.315 307.677 669.315 325.215C669.208 342.754 644.7 364.984 606.815 381.74Z" fill="#61DAFB"/>
<path id="Vector_3" d="M430.446 376.266C457.458 376.266 479.355 353.41 479.355 325.215C479.355 297.021 457.458 274.165 430.446 274.165C403.435 274.165 381.538 297.021 381.538 325.215C381.538 353.41 403.435 376.266 430.446 376.266Z" fill="#61DAFB"/>
</g>
</g>
<defs>
<clipPath id="clip0">
<rect width="901" height="665" fill="white"/>
</clipPath>
</defs>
</svg>
